/* XPM */
static char * drapes_xpm[] = {
"32 32 431 2",
"  	c None",
". 	c #888A85",
"+ 	c #858783",
"@ 	c #878984",
"# 	c #8C8E89",
"$ 	c #AFB1AD",
"% 	c #BABCB9",
"& 	c #BCBDBB",
"* 	c #BBBCB9",
"= 	c #BBBCBA",
"- 	c #BCBEBA",
"; 	c #B8B9B6",
"> 	c #B0B1AE",
", 	c #8E908B",
"' 	c #B6B7B4",
") 	c #F1F1F0",
"! 	c #F3F3F1",
"~ 	c #F4F4F3",
"{ 	c #F1F1EF",
"] 	c #F2F2F0",
"^ 	c #F0F0EE",
"/ 	c #F3F3F2",
"( 	c #B9BAB6",
"_ 	c #DADBD9",
": 	c #EFEFED",
"< 	c #C0C9D5",
"[ 	c #A9B7CA",
"} 	c #AAB8CB",
"| 	c #BEC4C9",
"1 	c #CBCCC9",
"2 	c #CDCDCA",
"3 	c #A7B5C7",
"4 	c #BEC7D3",
"5 	c #E9E9E6",
"6 	c #DADAD9",
"7 	c #8D8F8B",
"8 	c #DBDCDB",
"9 	c #EEEEEC",
"0 	c #6581A9",
"a 	c #7490B4",
"b 	c #6E8AB0",
"c 	c #7792B5",
"d 	c #6F8BB0",
"e 	c #718DB1",
"f 	c #6E89AD",
"g 	c #96A0AA",
"h 	c #AEAFAC",
"i 	c #728DB1",
"j 	c #7A94B5",
"k 	c #758FB1",
"l 	c #718BAC",
"m 	c #7790B3",
"n 	c #758EAF",
"o 	c #6F89AC",
"p 	c #728CAE",
"q 	c #7892B4",
"r 	c #6480A8",
"s 	c #DEDEDD",
"t 	c #8E928F",
"u 	c #EDEDEB",
"v 	c #93ABC6",
"w 	c #93A8C2",
"x 	c #A3B6CD",
"y 	c #94A9C3",
"z 	c #A2B5CB",
"A 	c #98ADC6",
"B 	c #96A9BF",
"C 	c #BABCBB",
"D 	c #BFC0BD",
"E 	c #BDC0BF",
"F 	c #94A9C1",
"G 	c #A6B7CB",
"H 	c #98ABC2",
"I 	c #8EA3BE",
"J 	c #97A8BB",
"K 	c #9FB3C9",
"L 	c #9CAEC4",
"M 	c #8FA4BE",
"N 	c #95A9C1",
"O 	c #A2B4CA",
"P 	c #637FA7",
"Q 	c #DDDDDC",
"R 	c #88A0BE",
"S 	c #8DA4C1",
"T 	c #9CB3CE",
"U 	c #8CA4C0",
"V 	c #9BB2CC",
"W 	c #90A7C4",
"X 	c #9EABB6",
"Y 	c #B9BAB7",
"Z 	c #BABBB8",
"` 	c #B9BBBA",
" .	c #8CA3C0",
"..	c #A0B2C8",
"+.	c #95A8BE",
"@.	c #869EBA",
"#.	c #8DA3BE",
"$.	c #9BAEC5",
"%.	c #97ABC3",
"&.	c #879EBA",
"*.	c #8FA5BF",
"=.	c #9BB1C9",
"-.	c #E8E8E5",
";.	c #DDDEDC",
">.	c #7E9ABE",
",.	c #87A3C6",
"'.	c #97B1CF",
").	c #839FC1",
"!.	c #96AFCC",
"~.	c #859DBB",
"{.	c #B6B8B3",
"].	c #B5B6B2",
"^.	c #B6B7B3",
"/.	c #B7B8B4",
"(.	c #B7B9B4",
"_.	c #B8B9B5",
":.	c #829BB9",
"<.	c #99ADC4",
"[.	c #8CA1BB",
"}.	c #7D96B5",
"|.	c #859CB8",
"1.	c #95AAC2",
"2.	c #8CA4BF",
"3.	c #7F97B5",
"4.	c #869EBC",
"5.	c #96ADC6",
"6.	c #E8E8E6",
"7.	c #DCDDDB",
"8.	c #8D8F8C",
"9.	c #7C9CC2",
"0.	c #87A4C7",
"a.	c #91AECE",
"b.	c #7F9DC1",
"c.	c #8FAAC9",
"d.	c #899AAE",
"e.	c #B1B3AE",
"f.	c #B5B7B2",
"g.	c #7C95B8",
"h.	c #95ACC4",
"i.	c #859EBB",
"j.	c #7893B4",
"k.	c #7F98B7",
"l.	c #8DA6C0",
"m.	c #87A0BF",
"n.	c #7892B2",
"o.	c #8099B8",
"p.	c #90A9C5",
"q.	c #8E918D",
"r.	c #DBDCDA",
"s.	c #84A2C6",
"t.	c #89A8CB",
"u.	c #86A7CC",
"v.	c #86A1C1",
"w.	c #7B96B6",
"x.	c #A0A7A9",
"y.	c #B0B3AD",
"z.	c #B4B5B1",
"A.	c #B3B4B0",
"B.	c #728FB4",
"C.	c #8CA4C1",
"D.	c #819AB9",
"E.	c #708CAF",
"F.	c #6F8EB4",
"G.	c #7E99BA",
"H.	c #6B8BB1",
"I.	c #4A6F9E",
"J.	c #4C72A1",
"K.	c #5882B1",
"L.	c #6480A7",
"M.	c #8D8F8A",
"N.	c #DBDBDA",
"O.	c #6682A9",
"P.	c #85A7CE",
"Q.	c #8EAED1",
"R.	c #84A4C9",
"S.	c #7693B7",
"T.	c #8595A6",
"U.	c #ABAEAA",
"V.	c #AFB2AC",
"W.	c #B2B4AF",
"X.	c #6A86AE",
"Y.	c #87A1C1",
"Z.	c #7592B5",
"`.	c #4F71A0",
" +	c #4B73A3",
".+	c #5D83AE",
"++	c #4E77A7",
"@+	c #366095",
"#+	c #426B9D",
"$+	c #567FAF",
"%+	c #E9E9E7",
"&+	c #DADAD8",
"*+	c #8E918E",
"=+	c #7195C0",
"-+	c #6489B5",
";+	c #7389A1",
">+	c #A7AAA5",
",+	c #ADB0AA",
"'+	c #AEB1AB",
")+	c #AFB1AC",
"!+	c #B0B2AD",
"~+	c #5A7AA7",
"{+	c #7290B6",
"]+	c #4D76A6",
"^+	c #365F94",
"/+	c #426C9F",
"(+	c #5A83B0",
"_+	c #4F79A9",
":+	c #376297",
"<+	c #446EA1",
"[+	c #5E86B5",
"}+	c #E7E7E5",
"|+	c #DEDFDD",
"1+	c #8F918B",
"2+	c #6385B2",
"3+	c #6587B3",
"4+	c #5A7CAA",
"5+	c #808D9A",
"6+	c #AAACA7",
"7+	c #ACAFA9",
"8+	c #ABAEA9",
"9+	c #AEB0AB",
"0+	c #ACAFAA",
"a+	c #A6A9A4",
"b+	c #3E649A",
"c+	c #678CB6",
"d+	c #4D77A8",
"e+	c #376298",
"f+	c #446EA2",
"g+	c #5D86B4",
"h+	c #527CAD",
"i+	c #38649B",
"j+	c #4470A5",
"k+	c #5F89B8",
"l+	c #627EA6",
"m+	c #8E8F8A",
"n+	c #ECECEA",
"o+	c #426DA4",
"p+	c #426A9F",
"q+	c #7D8A98",
"r+	c #A7AAA4",
"s+	c #A9ACA6",
"t+	c #ADB0AB",
"u+	c #A9ACA7",
"v+	c #A7A9A4",
"w+	c #A5A7A2",
"x+	c #3C6399",
"y+	c #688EB8",
"z+	c #517CAD",
"A+	c #39669E",
"B+	c #4471A6",
"C+	c #5F88B6",
"D+	c #537EB1",
"E+	c #3866A0",
"F+	c #4774AA",
"G+	c #618CBB",
"H+	c #637FA6",
"I+	c #E7E7E4",
"J+	c #527DB1",
"K+	c #4F79AB",
"L+	c #5176A4",
"M+	c #808B95",
"N+	c #A6A9A3",
"O+	c #A8ABA5",
"P+	c #A9ABA6",
"Q+	c #A9ABA7",
"R+	c #AAADA7",
"S+	c #AAACA8",
"T+	c #ABADA9",
"U+	c #3D6499",
"V+	c #6A91BD",
"W+	c #537DAF",
"X+	c #4874A9",
"Y+	c #608ABA",
"Z+	c #5582B6",
"`+	c #3A68A2",
" @	c #4A78AF",
".@	c #628EC0",
"+@	c #E6E6E4",
"@@	c #EBEBE9",
"#@	c #5886BB",
"$@	c #5683B8",
"%@	c #6289B7",
"&@	c #6E7E8F",
"*@	c #A4A7A1",
"=@	c #3E659A",
"-@	c #6B92BE",
";@	c #5581B4",
">@	c #3C6AA4",
",@	c #4877AF",
"'@	c #638FC0",
")@	c #5684B8",
"!@	c #3D6CA8",
"~@	c #4776AE",
"{@	c #6693C4",
"]@	c #8E908C",
"^@	c #5180B7",
"/@	c #4C7AB0",
"(@	c #648CBC",
"_@	c #607896",
":@	c #A1A39D",
"<@	c #B3B5B0",
"[@	c #3E679E",
"}@	c #6D97C5",
"|@	c #3C6CA8",
"1@	c #4978B0",
"2@	c #6592C4",
"3@	c #5A88BC",
"4@	c #3E6EAA",
"5@	c #4C7BB3",
"6@	c #6693C6",
"7@	c #EAEAE8",
"8@	c #4E7CB3",
"9@	c #4A79B2",
"0@	c #7198C4",
"a@	c #5F758E",
"b@	c #9FA19C",
"c@	c #40689E",
"d@	c #719AC9",
"e@	c #5A86B9",
"f@	c #4170AA",
"g@	c #4979B2",
"h@	c #6896C8",
"i@	c #5988BD",
"j@	c #4B7AB1",
"k@	c #6694C6",
"l@	c #E4E4E2",
"m@	c #4878B1",
"n@	c #4D7BB1",
"o@	c #7197C0",
"p@	c #4971A2",
"q@	c #9A9D98",
"r@	c #B4B6B1",
"s@	c #3E679D",
"t@	c #6F99C8",
"u@	c #5885BA",
"v@	c #3A6BA7",
"w@	c #6693C5",
"x@	c #EBEBE8",
"y@	c #91A3BD",
"z@	c #6581A8",
"A@	c #A5A6A2",
"B@	c #A8AAA5",
"C@	c #A7A8A3",
"D@	c #A6A9A7",
"E@	c #8FA2BB",
"F@	c #D9DAD8",
"G@	c #EAEAE7",
"H@	c #D5D6D4",
"I@	c #EFEFEE",
"J@	c #EEEEED",
"K@	c #EBEBEA",
"L@	c #EDEDEC",
"M@	c #ECECEB",
"N@	c #8E8F8B",
"O@	c #A0A19D",
"P@	c #B5B6B3",
"Q@	c #B7B8B5",
"R@	c #B7B9B6",
"S@	c #B6B8B5",
"T@	c #B4B5B2",
"U@	c #B6B6B4",
"V@	c #B8BAB7",
"W@	c #BABAB8",
"X@	c #B6B7B5",
"Y@	c #A4A5A1",
"Z@	c #5B5D59",
"`@	c #8C8D8A",
" #	c #91928F",
".#	c #92938F",
"+#	c #949592",
"@#	c #969793",
"##	c #999B96",
"$#	c #9B9D98",
"%#	c #9D9F9B",
"&#	c #A1A29E",
"*#	c #A2A5A3",
"=#	c #A5A7A4",
"-#	c #A6A9A9",
";#	c #6B6C68",
">#	c #737672",
",#	c #B2B3B0",
"'#	c #AFB6BB",
")#	c #B7B9B5",
"!#	c #BEBFBD",
"~#	c #C1C2BF",
"{#	c #C3C4C3",
"]#	c #C7C7C4",
"^#	c #C9C9C6",
"/#	c #898A86",
"(#	c #868883",
"_#	c #878884",
":#	c #92948F",
"<#	c #C2C3BF",
"[#	c #D9D9D7",
"}#	c #DEDEDB",
"|#	c #DFDFDD",
"1#	c #E1E1DF",
"2#	c #E3E3E1",
"3#	c #E5E5E3",
"4#	c #CECFCC",
"5#	c #979894",
"6#	c #696965",
"7#	c #343433",
"8#	c #000000",
"9#	c #4F504C",
"0#	c #A4A6A1",
"a#	c #C1C1BF",
"b#	c #CECECD",
"c#	c #CFCFCE",
"d#	c #D0D0CE",
"e#	c #CECECC",
"f#	c #CFCFCD",
"g#	c #CECFCD",
"h#	c #C0C0BE",
"i#	c #B1B1AF",
"j#	c #9C9E9A",
"k#	c #444442",
"l#	c #5C5D5B",
"m#	c #E9E9E8",
"n#	c #F6F6F5",
"o#	c #F5F5F5",
"p#	c #F5F5F4",
"q#	c #5D5E5C",
"r#	c #5B5C59",
"s#	c #A7A9A5",
"t#	c #A7A8A4",
"u#	c #A6A6A3",
"v#	c #A6A8A4",
"w#	c #A4A6A2",
"x#	c #5C5D5A",
"                                                                ",
"      . . . . + . . . . . @ . . . . . . . . . @ . . . . .       ",
"  # $ % & & & * & & & & & & % & & & % & % & = - & & & % ; > ,   ",
"  ' ) ! ! ~ ! ! ! ! ! ! ~ ! { ! ! ! { ! { ! ] ^ ^ ^ { { { / (   ",
"  _ : < [ [ } [ [ [ } | 1 1 2 1 1 1 [ [ [ 3 [ [ 3 3 [ 3 4 5 6 7 ",
"  8 9 0 a b c d c e f g h > h h h h i j k f l m n o p q r 5 s t ",
"  8 u r v w x y z A B C D D E E D D F G H I J K L M N O P 5 Q 7 ",
"  8 u r R S T U V W X Y Z Z ` ` Z Z  ...+.@.#.$.%.&.*.=.P -.;., ",
"  8 u r >.,.'.).!.~.$ {.].^./.(.(._.:.<.[.}.|.1.2.3.4.5.P 6.7.8.",
"  8 9 0 9.0.a.b.c.d.e.f.].].].^./.^.g.h.i.j.k.l.m.n.o.p.P 6.;.q.",
"  r.u 0 s.t.u.v.w.x.y.e.z.].].].].A.B.C.D.E.F.G.H.I.J.K.L.6.7.M.",
"  N.u O.P.Q.R.S.T.U.V.e.e.W.W.W.W.z.X.Y.Z.`. +.+++@+#+$+L.%+&+*+",
"  r.9 r =+=+-+;+>+,+'+'+V.)+e.e.A.!+~+{+]+^+/+(+_+:+<+[+P }+|+1+",
"  8 9 r 2+3+4+5+6+7+8+9+!+!+)+e.0+a+b+c+d+e+f+g+h+i+j+k+l+-.Q m+",
"  8 n+r o+o+p+q+r+s+0+t+0+9+u+v+r+w+x+y+z+A+B+C+D+E+F+G+H+I+;., ",
"  8 n+r J+K+L+M+N+O+P+Q+Q+R+S+T+T+T+U+V+W+A+X+Y+Z+`+ @.@l++@;., ",
"  8 @@r #@$@%@&@*@N+r+r+7+'+'+y.)+'+=@-@;@>@,@'@)@!@~@{@H++@r.]@",
"  8 u r ^@/@(@_@:@N+r+R+'+'+y.e.<@e.[@}@)@|@1@2@3@4@5@6@H++@r.]@",
"  r.7@r 8@9@0@a@b@r+s+7+'+)+(.(.(.(.c@d@e@f@g@h@i@4@j@k@H+l@;., ",
"  N.n+r m@n@o@p@q@r+7+7+7+)+{.<@(.r@s@t@u@v@5@w@i@4@j@k@H++@;., ",
"  8 x@y@r r z@O.w+w+w+w+A@v+B@B@C@D@L.L.L.P H+L.L.L.P P E@+@F@]@",
"  8 x@G@u 7@7@@@x@x@x@x@@@7@5 5 5 5 -.5 5 -.+@-.+@+@+@+@+@+@;.]@",
"  H@] ^ ^ ^ { : ^ ^ : : : : I@J@I@I@J@J@K@L@I@J@J@M@J@J@K@@@F@N@",
"  O@P@Q@R@R@Q@Q@S@S@S@S@' T@Q@Q@' R@U@; ' P@R@R@Y ; V@W@; X@Y@  ",
"                  Z@`@ #.#+#@###$#%#&#*#=#-#;#                  ",
"                  >#9+> ,#'#)#Z & !#~#{#]#^#/#                  ",
"            (#_#:#<#[#&+&+&+}#|#1#2#2#3#}+-.4#5#6#7#            ",
"      8#8#9#0#> a#b#c#4#d#d#d#e#d#c#e#d#f#g#e#h#i#j#k#8#8#8#    ",
"    8#8#8#l#m#n#n#n#n#n#n#n#n#n#n#n#n#n#n#n#o#o#p#+@q#8#8#8#8#8#",
"    8#8#8#r#A@s#t#s#u#s#s#t#s#s#u#s#s#s#s#s#t#t#v#w#x#8#8#8#8#8#",
"        8#8#8#8#8#8#8#8#8#8#8#8#8#8#8#8#8#8#8#8#8#8#8#8#8#8#    ",
"                8#8#8#8#8#8#8#8#8#8#8#8#8#8#8#8#8#              "};
